<?xml version="1.0" encoding="UTF-8" standalone="no"?>
<!-- Created with Inkscape (http://www.inkscape.org/) -->

<svg
   width="296.92963mm"
   height="44.689198mm"
   viewBox="0 0 296.92963 44.689198"
   version="1.1"
   id="svg1"
   xmlns:xlink="http://www.w3.org/1999/xlink"
   xmlns="http://www.w3.org/2000/svg"
   xmlns:svg="http://www.w3.org/2000/svg">
  <defs
     id="defs1">
    <linearGradient
       id="linearGradient204">
      <stop
         style="stop-color:#00d800;stop-opacity:0.5;"
         offset="0"
         id="stop215" />
      <stop
         style="stop-color:#00d800;stop-opacity:0;"
         offset="1"
         id="stop220" />
    </linearGradient>
    <linearGradient
       id="linearGradient202">
      <stop
         style="stop-color:#0000aa;stop-opacity:0.5;"
         offset="0"
         id="stop203" />
      <stop
         style="stop-color:#0000aa;stop-opacity:0;"
         offset="1"
         id="stop204" />
    </linearGradient>
    <linearGradient
       id="linearGradient200">
      <stop
         style="stop-color:#ff0000;stop-opacity:0.5;"
         offset="0"
         id="stop201" />
      <stop
         style="stop-color:#ff0000;stop-opacity:0;"
         offset="1"
         id="stop202" />
    </linearGradient>
    <linearGradient
       id="linearGradient198">
      <stop
         style="stop-color:#ffcc00;stop-opacity:0.5;"
         offset="0"
         id="stop199" />
      <stop
         style="stop-color:#ffcc00;stop-opacity:0;"
         offset="1"
         id="stop200" />
    </linearGradient>
    <linearGradient
       id="linearGradient196">
      <stop
         style="stop-color:#ffcc00;stop-opacity:0.5;"
         offset="0"
         id="stop197" />
      <stop
         style="stop-color:#ffcc00;stop-opacity:0;"
         offset="1"
         id="stop198" />
    </linearGradient>
    <linearGradient
       id="linearGradient195">
      <stop
         style="stop-color:#ff0000;stop-opacity:0.5;"
         offset="0"
         id="stop195" />
      <stop
         style="stop-color:#ff0000;stop-opacity:0;"
         offset="1"
         id="stop196" />
    </linearGradient>
    <linearGradient
       id="linearGradient189">
      <stop
         style="stop-color:#ff00bc;stop-opacity:0.50487804;"
         offset="0"
         id="stop186" />
      <stop
         style="stop-color:#ff00bc;stop-opacity:0;"
         offset="1"
         id="stop189" />
    </linearGradient>
    <clipPath
       clipPathUnits="userSpaceOnUse"
       id="clipPath176">
      <rect
         style="display:inline;fill:#ff0000;fill-opacity:1;stroke:none;stroke-width:1.54557;stroke-linejoin:round;stroke-dasharray:none;stroke-opacity:1"
         id="rect176"
         width="296.92963"
         height="56.132584"
         x="1.2828531e-08"
         y="-8.3275623" />
    </clipPath>
    <radialGradient
       xlink:href="#linearGradient189"
       id="radialGradient188"
       cx="20.14105"
       cy="32.761688"
       fx="20.14105"
       fy="32.761688"
       r="11.970871"
       gradientUnits="userSpaceOnUse"
       gradientTransform="translate(124.28432,-17.667416)" />
    <clipPath
       clipPathUnits="userSpaceOnUse"
       id="clipPath93">
      <rect
         style="fill:#00d800;fill-opacity:1;stroke:none;stroke-width:1.79452;stroke-linejoin:round;stroke-dasharray:none;stroke-opacity:1"
         id="rect93"
         width="297"
         height="54.468399"
         x="0"
         y="0"
         transform="rotate(6.1279565)" />
    </clipPath>
    <clipPath
       clipPathUnits="userSpaceOnUse"
       id="clipPath94">
      <rect
         style="fill:#00d800;fill-opacity:1;stroke:none;stroke-width:1.79452;stroke-linejoin:round;stroke-dasharray:none;stroke-opacity:1"
         id="rect94"
         width="297"
         height="54.468399"
         x="0"
         y="0"
         transform="rotate(155.65671)" />
    </clipPath>
    <clipPath
       clipPathUnits="userSpaceOnUse"
       id="clipPath95">
      <rect
         style="fill:#00d800;fill-opacity:1;stroke:none;stroke-width:1.79452;stroke-linejoin:round;stroke-dasharray:none;stroke-opacity:1"
         id="rect95"
         width="297"
         height="54.468399"
         x="0"
         y="0"
         transform="rotate(-18.661728)" />
    </clipPath>
    <clipPath
       clipPathUnits="userSpaceOnUse"
       id="clipPath96">
      <rect
         style="fill:#00d800;fill-opacity:1;stroke:none;stroke-width:1.79452;stroke-linejoin:round;stroke-dasharray:none;stroke-opacity:1"
         id="rect96"
         width="297"
         height="54.468403"
         x="0"
         y="0"
         transform="matrix(0.83998814,0.54260476,0.54260476,-0.83998814,0,0)" />
    </clipPath>
    <clipPath
       clipPathUnits="userSpaceOnUse"
       id="clipPath97">
      <rect
         style="fill:#00d800;fill-opacity:1;stroke:none;stroke-width:1.79452;stroke-linejoin:round;stroke-dasharray:none;stroke-opacity:1"
         id="rect97"
         width="297"
         height="54.468399"
         x="0"
         y="0"
         transform="rotate(30.793962)" />
    </clipPath>
    <clipPath
       clipPathUnits="userSpaceOnUse"
       id="clipPath98">
      <rect
         style="fill:#00d800;fill-opacity:1;stroke:none;stroke-width:1.79452;stroke-linejoin:round;stroke-dasharray:none;stroke-opacity:1"
         id="rect98"
         width="297"
         height="54.468399"
         x="0"
         y="0"
         transform="matrix(0.97633892,-0.21624596,-0.21624596,-0.97633892,0,0)" />
    </clipPath>
    <clipPath
       clipPathUnits="userSpaceOnUse"
       id="clipPath99">
      <rect
         style="fill:#00d800;fill-opacity:1;stroke:none;stroke-width:1.79452;stroke-linejoin:round;stroke-dasharray:none;stroke-opacity:1"
         id="rect99"
         width="297"
         height="54.468399"
         x="0"
         y="0"
         transform="rotate(-24.373352)" />
    </clipPath>
    <clipPath
       clipPathUnits="userSpaceOnUse"
       id="clipPath100">
      <rect
         style="fill:#00d800;fill-opacity:1;stroke:none;stroke-width:1.79452;stroke-linejoin:round;stroke-dasharray:none;stroke-opacity:1"
         id="rect100"
         width="297"
         height="54.468399"
         x="0.26023632"
         y="0.52047265"
         transform="rotate(28.25451)" />
    </clipPath>
    <clipPath
       clipPathUnits="userSpaceOnUse"
       id="clipPath101">
      <rect
         style="fill:#00d800;fill-opacity:1;stroke:none;stroke-width:1.79452;stroke-linejoin:round;stroke-dasharray:none;stroke-opacity:1"
         id="rect101"
         width="297"
         height="54.468399"
         x="0"
         y="0"
         transform="rotate(-166.25927)" />
    </clipPath>
    <clipPath
       clipPathUnits="userSpaceOnUse"
       id="clipPath102">
      <rect
         style="fill:#00d800;fill-opacity:1;stroke:none;stroke-width:1.79452;stroke-linejoin:round;stroke-dasharray:none;stroke-opacity:1"
         id="rect102"
         width="297"
         height="54.468399"
         x="0"
         y="0"
         transform="rotate(159.88274)" />
    </clipPath>
    <filter
       style="color-interpolation-filters:sRGB"
       id="filter189"
       x="-0.14594986"
       y="-0.14594986"
       width="1.2918997"
       height="1.2918997">
      <feGaussianBlur
         stdDeviation="1.4559558"
         id="feGaussianBlur189" />
    </filter>
    <radialGradient
       xlink:href="#linearGradient189"
       id="radialGradient190"
       gradientUnits="userSpaceOnUse"
       gradientTransform="translate(5.1701638,-11.747253)"
       cx="20.14105"
       cy="32.761688"
       fx="20.14105"
       fy="32.761688"
       r="11.970871" />
    <radialGradient
       xlink:href="#linearGradient195"
       id="radialGradient196"
       cx="7.7451239"
       cy="14.607773"
       fx="7.7451239"
       fy="14.607773"
       r="15.465164"
       gradientUnits="userSpaceOnUse" />
    <radialGradient
       xlink:href="#linearGradient196"
       id="radialGradient198"
       cx="94.945282"
       cy="25.251429"
       fx="94.945282"
       fy="25.251429"
       r="15.465164"
       gradientUnits="userSpaceOnUse" />
    <radialGradient
       xlink:href="#linearGradient198"
       id="radialGradient200"
       cx="204.49449"
       cy="19.837919"
       fx="204.49449"
       fy="19.837919"
       r="15.465164"
       gradientUnits="userSpaceOnUse" />
    <radialGradient
       xlink:href="#linearGradient200"
       id="radialGradient202"
       cx="223.74159"
       cy="14.196151"
       fx="223.74159"
       fy="14.196151"
       r="15.465164"
       gradientUnits="userSpaceOnUse" />
    <radialGradient
       xlink:href="#linearGradient202"
       id="radialGradient204"
       cx="255.67445"
       cy="27.367268"
       fx="255.67445"
       fy="27.367268"
       r="15.465164"
       gradientUnits="userSpaceOnUse" />
    <clipPath
       clipPathUnits="userSpaceOnUse"
       id="clipPath308">
      <rect
         style="fill:#ffcc00;fill-opacity:1;stroke-width:15.0147;stroke-linejoin:round;stroke-dasharray:none"
         id="rect309"
         width="297"
         height="54.129154"
         x="0"
         y="0" />
    </clipPath>
    <radialGradient
       xlink:href="#linearGradient204"
       id="radialGradient2"
       gradientUnits="userSpaceOnUse"
       cx="271.86469"
       cy="29.224035"
       fx="271.86469"
       fy="29.224035"
       r="15.465164" />
  </defs>
  <g
     id="layer3">
    <g
       id="g244"
       style="display:inline"
       clip-path="url(#clipPath308)">
      <circle
         style="mix-blend-mode:normal;fill:url(#radialGradient188);fill-opacity:1;stroke:none;stroke-width:1.439;stroke-linejoin:round;stroke-dasharray:none;stroke-opacity:1;filter:url(#filter189)"
         id="circle220"
         cx="144.42538"
         cy="15.094274"
         r="11.970871" />
      <circle
         style="mix-blend-mode:normal;fill:url(#radialGradient196);fill-opacity:1;stroke:none;stroke-width:1.439;stroke-linejoin:round;stroke-dasharray:none;stroke-opacity:1;filter:url(#filter189)"
         id="circle221"
         cx="7.7451243"
         cy="14.607774"
         r="11.970871" />
      <circle
         style="mix-blend-mode:normal;fill:url(#radialGradient190);fill-opacity:1;stroke:none;stroke-width:1.439;stroke-linejoin:round;stroke-dasharray:none;stroke-opacity:1;filter:url(#filter189)"
         id="circle222"
         cx="25.311228"
         cy="21.014439"
         r="11.970871" />
      <circle
         style="mix-blend-mode:normal;fill:url(#radialGradient198);fill-opacity:1;stroke:none;stroke-width:1.439;stroke-linejoin:round;stroke-dasharray:none;stroke-opacity:1;filter:url(#filter189)"
         id="circle223"
         cx="94.945282"
         cy="25.251429"
         r="11.970871" />
      <circle
         style="mix-blend-mode:normal;fill:url(#radialGradient200);fill-opacity:1;stroke:none;stroke-width:1.439;stroke-linejoin:round;stroke-dasharray:none;stroke-opacity:1;filter:url(#filter189)"
         id="circle224"
         cx="204.49449"
         cy="19.837919"
         r="11.970871" />
      <circle
         style="mix-blend-mode:normal;fill:url(#radialGradient202);fill-opacity:1;stroke:none;stroke-width:1.439;stroke-linejoin:round;stroke-dasharray:none;stroke-opacity:1;filter:url(#filter189)"
         id="circle225"
         cx="223.74159"
         cy="14.196152"
         r="11.970871" />
      <circle
         style="mix-blend-mode:normal;fill:url(#radialGradient204);fill-opacity:1;stroke:none;stroke-width:1.439;stroke-linejoin:round;stroke-dasharray:none;stroke-opacity:1;filter:url(#filter189)"
         id="circle226"
         cx="255.67445"
         cy="27.367268"
         r="11.970871" />
      <circle
         style="mix-blend-mode:normal;fill:url(#radialGradient2);fill-opacity:1;stroke:none;stroke-width:1.439;stroke-linejoin:round;stroke-dasharray:none;stroke-opacity:1;filter:url(#filter189)"
         id="circle227"
         cx="271.86469"
         cy="29.224035"
         r="11.970871" />
      <path
         style="fill:none;fill-opacity:1;stroke:#000000;stroke-width:1.4403;stroke-linejoin:round;stroke-dasharray:none;stroke-opacity:1"
         d="M -2.1688849,-0.44048055 C -1.9896427,-0.11519555 28.21159,18.843303 70.496636,18.996696 98.109127,19.096863 121.40581,8.6073348 135.19024,0.51225648 141.80419,6.2024189 154.56161,11.098654 187.77199,11.66746 204.4296,11.952762 220.57058,8.9939665 227.73875,0.48886036 239.4232,23.75279 293.01269,23.543226 299.80227,16.765814"
         id="path227"
         clip-path="url(#clipPath176)" />
      <path
         id="path228"
         style="fill:#ff00bc;fill-opacity:1;stroke:none;stroke-width:0.542616;stroke-linejoin:round;stroke-dasharray:none;stroke-opacity:1"
         d="m 27.848317,21.080858 c 0.620726,-2.322734 -0.776124,-6.361727 -0.776124,-6.361727 0,0 -3.386185,2.607373 -4.143654,4.889176 -0.881002,2.653927 0.375128,7.701437 0.375128,7.701437 0,0 3.822697,-3.527354 4.54465,-6.228886 z" />
      <rect
         style="fill:#000000;fill-opacity:1;stroke:none;stroke-width:0.655581;stroke-linejoin:round;stroke-dasharray:none;stroke-opacity:1"
         id="rect230"
         width="3.4917183"
         height="4.9846883"
         x="28.352118"
         y="4.3186827"
         transform="rotate(16.663091)" />
      <path
         id="path230"
         style="fill:#000033;fill-opacity:1;stroke:none;stroke-width:0.542616;stroke-linejoin:round;stroke-dasharray:none;stroke-opacity:1"
         d="m 47.904127,25.539639 c 0.572575,-2.335068 -0.907477,-6.344321 -0.907477,-6.344321 0,0 -3.331557,2.67682 -4.041691,4.973795 -0.825948,2.671572 0.534258,7.692035 0.534258,7.692035 0,0 3.748958,-3.605628 4.414906,-6.321508 z" />
      <rect
         style="fill:#000000;fill-opacity:1;stroke:none;stroke-width:0.655581;stroke-linejoin:round;stroke-dasharray:none;stroke-opacity:1"
         id="rect231"
         width="3.4917183"
         height="4.9846883"
         x="-53.585964"
         y="-14.72233"
         transform="rotate(15.478511,-119.61585,366.89791)"
         clip-path="url(#clipPath102)" />
      <path
         id="path231"
         style="fill:#004d00;fill-opacity:1;stroke:none;stroke-width:0.542616;stroke-linejoin:round;stroke-dasharray:none;stroke-opacity:1"
         d="m 71.709806,26.980935 c 0.0238,-2.397071 -2.342032,-5.779382 -2.342032,-5.779382 0,0 -2.641192,3.54443 -2.808147,5.946135 -0.194187,2.793384 2.286524,7.17561 2.286524,7.17561 0,0 2.835968,-4.55437 2.863655,-7.342363 z" />
      <rect
         style="fill:#000000;fill-opacity:1;stroke:none;stroke-width:0.656435;stroke-linejoin:round;stroke-dasharray:none;stroke-opacity:1"
         id="rect232"
         width="3.5035834"
         height="4.9807467"
         x="68.586113"
         y="21.434366"
         transform="matrix(0.99947624,-0.03236106,-0.03972115,0.9992108,0,0)" />
      <path
         id="path232"
         style="fill:#ffcc00;fill-opacity:1;stroke:none;stroke-width:0.542616;stroke-linejoin:round;stroke-dasharray:none;stroke-opacity:1"
         d="m 97.418957,24.049061 c -0.554242,-2.339489 -3.698476,-5.234042 -3.698476,-5.234042 0,0 -1.746007,3.900782 -1.331573,6.269036 0.482018,2.754478 3.980313,6.603783 3.980313,6.603783 0,0 1.694369,-4.91776 1.049736,-7.638777 z" />
      <rect
         style="fill:#000000;fill-opacity:1;stroke:none;stroke-width:0.655581;stroke-linejoin:round;stroke-dasharray:none;stroke-opacity:1"
         id="rect233"
         width="3.4917183"
         height="4.9846883"
         x="-85.639351"
         y="-50.703629"
         transform="rotate(-11.627028,336.17774,-887.15462)"
         clip-path="url(#clipPath101)" />
      <path
         id="path233"
         style="fill:#4d0000;fill-opacity:1;stroke:none;stroke-width:0.542616;stroke-linejoin:round;stroke-dasharray:none;stroke-opacity:1"
         d="m 118.2743,17.354902 c -1.03434,-2.170379 -4.71748,-4.338132 -4.71748,-4.338132 0,0 -0.88568,4.180934 0.0181,6.408867 1.05109,2.591272 5.28134,5.617841 5.28134,5.617841 0,0 0.62111,-5.164249 -0.58191,-7.688576 z" />
      <rect
         style="fill:#000000;fill-opacity:1;stroke:none;stroke-width:0.655581;stroke-linejoin:round;stroke-dasharray:none;stroke-opacity:1"
         id="rect234"
         width="3.4917183"
         height="4.9846883"
         x="89.939919"
         y="72.920189"
         transform="rotate(-23.779981,-44.533314,-7.9374356)"
         clip-path="url(#clipPath100)" />
      <path
         id="path234"
         style="fill:#ff00bc;fill-opacity:1;stroke:none;stroke-width:0.542616;stroke-linejoin:round;stroke-dasharray:none;stroke-opacity:1"
         d="m 146.96409,15.141802 c 0.60422,-2.327081 -0.82128,-6.3560539 -0.82128,-6.3560539 0,0 -3.36758,2.6313479 -4.10883,4.9184719 -0.86214,2.660113 0.42979,7.698578 0.42979,7.698578 0,0 3.79756,-3.554405 4.50032,-6.260996 z" />
      <rect
         style="fill:#000000;fill-opacity:1;stroke:none;stroke-width:0.655581;stroke-linejoin:round;stroke-dasharray:none;stroke-opacity:1"
         id="rect235"
         width="3.4917183"
         height="4.9846883"
         x="135.56714"
         y="-49.86824"
         transform="rotate(16.256301,-56.386748,11.402388)"
         clip-path="url(#clipPath99)" />
      <path
         id="path235"
         style="fill:#000033;fill-opacity:1;stroke:none;stroke-width:0.542616;stroke-linejoin:round;stroke-dasharray:none;stroke-opacity:1"
         d="m 162.6265,18.065869 c 0.47975,-2.355893 3.53058,-5.348728 3.53058,-5.348728 0,0 1.86887,3.843432 1.52976,6.223642 -0.39439,2.768381 -3.76882,6.72672 -3.76882,6.72672 0,0 -1.84952,-4.861537 -1.29152,-7.601634 z" />
      <rect
         style="fill:#000000;fill-opacity:1;stroke:none;stroke-width:0.655581;stroke-linejoin:round;stroke-dasharray:none;stroke-opacity:1"
         id="rect236"
         width="3.4917183"
         height="4.9846883"
         x="-167.64041"
         y="-17.840235"
         transform="matrix(-0.98538046,-0.17036826,-0.17036826,0.98538046,0,0)" />
      <path
         id="path236"
         style="fill:#004d00;fill-opacity:1;stroke:none;stroke-width:0.542616;stroke-linejoin:round;stroke-dasharray:none;stroke-opacity:1"
         d="m 189.66656,19.680942 c -0.061,-2.403469 -2.54244,-5.88302 -2.54244,-5.88302 0,0 -2.51123,3.458081 -2.59294,5.860936 -0.095,2.794719 2.53643,7.281443 2.53643,7.281443 0,0 2.66994,-4.463925 2.59895,-7.259359 z" />
      <rect
         style="fill:#000000;fill-opacity:1;stroke:none;stroke-width:0.655581;stroke-linejoin:round;stroke-dasharray:none;stroke-opacity:1"
         id="rect237"
         width="3.4917183"
         height="4.9846883"
         x="185.43587"
         y="10.929505"
         transform="rotate(0.24639825)" />
      <path
         id="path237"
         style="fill:#ffcc00;fill-opacity:1;stroke:none;stroke-width:0.542616;stroke-linejoin:round;stroke-dasharray:none;stroke-opacity:1"
         d="m 201.92929,19.530782 c -0.28903,-2.386809 1.66017,-6.190134 1.66017,-6.190134 0,0 2.98728,3.056266 3.41743,5.421715 0.50031,2.751214 -1.45091,7.572826 -1.45091,7.572826 0,0 -3.29054,-4.028351 -3.62669,-6.804407 z" />
      <rect
         style="fill:#000000;fill-opacity:1;stroke:none;stroke-width:0.655581;stroke-linejoin:round;stroke-dasharray:none;stroke-opacity:1"
         id="rect238"
         width="3.4917183"
         height="4.9846883"
         x="194.55708"
         y="-62.554279"
         transform="matrix(-0.98874195,0.14963074,0.14963074,0.98874195,406.7337,43.777392)"
         clip-path="url(#clipPath98)" />
      <path
         id="path238"
         style="fill:#ff0000;fill-opacity:1;stroke:none;stroke-width:0.542616;stroke-linejoin:round;stroke-dasharray:none;stroke-opacity:1"
         d="m 226.03595,12.652122 c -0.89802,-2.230237 -4.43993,-4.6217944 -4.43993,-4.6217944 0,0 -1.14275,4.1181004 -0.37866,6.3976964 0.8887,2.651359 4.92353,5.933952 4.92353,5.933952 0,0 0.9395,-5.115914 -0.10494,-7.709854 z" />
      <rect
         style="fill:#000000;fill-opacity:1;stroke:none;stroke-width:0.655581;stroke-linejoin:round;stroke-dasharray:none;stroke-opacity:1"
         id="rect239"
         width="3.4917183"
         height="4.9846883"
         x="183.45151"
         y="122.10799"
         transform="rotate(-20.231498,-122.09164,-35.907022)"
         clip-path="url(#clipPath97)" />
      <path
         id="path239"
         style="fill:#4d0038;fill-opacity:1;stroke:none;stroke-width:0.542616;stroke-linejoin:round;stroke-dasharray:none;stroke-opacity:1"
         d="m 235.43801,19.349393 c 0.97348,-2.198342 4.59482,-4.467832 4.59482,-4.467832 0,0 1.00177,4.154647 0.16045,6.406885 -0.97851,2.619538 -5.12284,5.762749 -5.12284,5.762749 0,0 -0.76469,-5.144949 0.36757,-7.701802 z" />
      <rect
         style="fill:#000000;fill-opacity:1;stroke:none;stroke-width:0.655581;stroke-linejoin:round;stroke-dasharray:none;stroke-opacity:1"
         id="rect240"
         width="3.4917183"
         height="4.9846883"
         x="213.23927"
         y="114.34277"
         transform="matrix(-0.92597564,-0.37758327,-0.37758327,0.92597564,483.05692,-11.733084)"
         clip-path="url(#clipPath96)" />
      <path
         id="path240"
         style="fill:#0000aa;fill-opacity:1;stroke:none;stroke-width:0.542616;stroke-linejoin:round;stroke-dasharray:none;stroke-opacity:1"
         d="m 258.22246,27.30581 c 0.50843,-2.34987 -1.08084,-6.317097 -1.08084,-6.317097 0,0 -3.25701,2.767027 -3.90399,5.082584 -0.75251,2.693184 0.74465,7.674525 0.74465,7.674525 0,0 3.64884,-3.706918 4.24018,-6.440012 z" />
      <rect
         style="fill:#000000;fill-opacity:1;stroke:none;stroke-width:0.655581;stroke-linejoin:round;stroke-dasharray:none;stroke-opacity:1"
         id="rect241"
         width="3.4917183"
         height="4.9846883"
         x="251.20145"
         y="-56.257027"
         transform="rotate(13.909657,-53.118683,0.58958691)"
         clip-path="url(#clipPath95)" />
      <path
         id="path241"
         style="fill:#00d800;fill-opacity:1;stroke:none;stroke-width:0.542616;stroke-linejoin:round;stroke-dasharray:none;stroke-opacity:1"
         d="m 269.33081,28.242481 c 0.33925,-2.380187 3.20732,-5.548603 3.20732,-5.548603 0,0 2.09341,3.725894 1.89599,6.12202 -0.2296,2.786892 -3.36347,6.938294 -3.36347,6.938294 0,0 -2.13444,-4.743355 -1.73984,-7.511711 z" />
      <rect
         style="fill:#000000;fill-opacity:1;stroke:none;stroke-width:0.655581;stroke-linejoin:round;stroke-dasharray:none;stroke-opacity:1"
         id="rect242"
         width="3.4917183"
         height="4.9846883"
         x="-275.11371"
         y="-9.9428873"
         transform="matrix(-0.9937466,-0.11165879,-0.11165879,0.9937466,0,0)" />
      <path
         id="path242"
         style="fill:#ff0000;fill-opacity:1;stroke:none;stroke-width:0.542616;stroke-linejoin:round;stroke-dasharray:none;stroke-opacity:1"
         d="m 10.263887,14.94922 c 0.857824,-2.246004 -0.113441,-6.4078917 -0.113441,-6.4078917 0,0 -3.6378891,2.2428547 -4.6274829,4.4339937 -1.1509841,2.548475 -0.4240811,7.698896 -0.4240811,7.698896 0,0 4.1672871,-3.11271 5.165002,-5.724998 z" />
      <rect
         style="fill:#000000;fill-opacity:1;stroke:none;stroke-width:0.655581;stroke-linejoin:round;stroke-dasharray:none;stroke-opacity:1"
         id="rect243"
         width="3.4917183"
         height="4.9846883"
         x="-13.167349"
         y="-13.070018"
         transform="rotate(22.604553,-49.538927,52.734751)"
         clip-path="url(#clipPath94)" />
      <path
         id="path243"
         style="fill:#4d3d00;fill-opacity:1;stroke:none;stroke-width:0.542616;stroke-linejoin:round;stroke-dasharray:none;stroke-opacity:1"
         d="m 293.5573,27.541139 c -0.32754,-2.381826 -3.17988,-5.564376 -3.17988,-5.564376 0,0 -2.11178,3.715508 -1.9262,6.112579 0.21582,2.787997 3.32915,6.954825 3.32915,6.954825 0,0 2.15784,-4.732758 1.77693,-7.503028 z" />
      <rect
         style="fill:#000000;fill-opacity:1;stroke:none;stroke-width:0.655581;stroke-linejoin:round;stroke-dasharray:none;stroke-opacity:1"
         id="rect244"
         width="3.4917183"
         height="4.9846883"
         x="283.32709"
         y="62.886475"
         transform="rotate(-6.1279565,-113.68758,-6.0854165)"
         clip-path="url(#clipPath93)" />
    </g>
  </g>
</svg>
