<?xml version="1.0" encoding="UTF-8" standalone="no"?>
<!-- Created with Inkscape (http://www.inkscape.org/) -->

<svg
   width="296.99942mm"
   height="60.0448mm"
   viewBox="0 0 296.99942 60.0448"
   version="1.1"
   id="svg1"
   xmlns="http://www.w3.org/2000/svg"
   xmlns:svg="http://www.w3.org/2000/svg">
  <defs
     id="defs1">
    <clipPath
       clipPathUnits="userSpaceOnUse"
       id="clipPath7">
      <rect
         style="fill:#ff0000;fill-opacity:1;stroke-width:2.47464;stroke-linejoin:round"
         id="rect8"
         width="296.99942"
         height="72.514175"
         x="-0.0069138031"
         y="-209.99998"
         ry="0"
         transform="scale(1,-1)" />
    </clipPath>
  </defs>
  <g
     id="layer1"
     transform="translate(0.0069138,-149.95519)">
    <g
       id="g7"
       clip-path="url(#clipPath7)">
      <path
         style="fill:#f2f2f2;fill-opacity:1;stroke-width:0.845143;stroke-linejoin:round"
         d="m -1.2646923,151.61345 c 45.9252743,-8.0318 68.5963673,16.14867 95.8616713,8.19664 33.888941,-9.88383 48.260631,10.19363 70.229621,16.5561 31.01207,8.98146 37.89866,5.86912 62.7925,-2.5341 17.74247,-5.98918 39.32562,-18.59965 58.4687,-9.67754 11.59231,5.40289 25.49627,31.08837 25.49627,31.08837 l -328.699697,0.27968 c 0,0 -4.171369,-40.40748 15.8509347,-43.90915 z"
         id="path1" />
      <path
         style="fill:#f9f9f9;fill-opacity:1;stroke-width:0.827222;stroke-linejoin:round"
         d="m 23.61519,173.73354 c 43.99821,-8.0318 64.471422,9.12229 90.59265,1.17026 32.46693,-9.88383 40.92532,-9.32409 61.97247,-2.96162 29.71078,8.98146 32.83389,19.15094 57.48979,13.86079 16.99798,-3.64706 41.91387,-14.69611 60.25369,-5.774 11.10589,5.40289 24.42642,31.08837 24.42642,31.08837 L 3.4430431,211.39702 c 0,0 0.9899957,-34.16181 20.1721469,-37.66348 z"
         id="path3" />
      <path
         style="fill:#ffffff;fill-opacity:1;stroke-width:0.827222;stroke-linejoin:round"
         d="m 3.0565204,165.66622 c 43.9982126,-8.0318 60.0474026,23.95576 86.1686326,24.07106 33.937727,0.14981 38.017677,-6.76802 57.288217,-6.60493 29.34261,0.24833 42.72287,23.05449 67.37877,17.76434 16.99798,-3.64706 48.41978,-20.16108 66.7596,-11.23897 11.10589,5.40289 19.22169,24.8427 19.22169,24.8427 l -314.907166,0.27968 c 0,0 -1.091895,-45.61221 18.0902564,-49.11388 z"
         id="path2" />
    </g>
  </g>
</svg>
